<svg width="426" height="95" viewBox="0 0 426 95" fill="none" xmlns="http://www.w3.org/2000/svg">
<g id="Vector 1">
<path d="M11 76L41 93.5L68 78L74.5 72L79 66.5L81 62V59L79 55L74.5 48L68 42L3.5 5H1V59L5 68.5L11 76Z" stroke="#2E6B30"/>
<path d="M81.5 5V48.5L77.5 42V37L73.5 39L70.5 37L77.5 32.5V28.5L67 34.5L62.5 32.5L77.5 23V19.5L59 30L55 27.5L77.5 15V10.5L53 24.5H49L47.5 23L79 5H81.5Z" stroke="#2E6B30"/>
<path d="M19 7L39 18.5H43.5L63.5 7L59 3.5L52.5 1L44.5 0.5H36.5L28.5 2L22.5 5L19 7Z" stroke="#2E6B30"/>
<path d="M135 49.5V21.5L131.5 19.5V17.5H161.5V22.5L160.5 23.5V25.5L160 26.5H156.5L155.5 22.5V20.5H154.5H142.5V33H155V38H143V50H155.5L157 48V43.5H162V54H130.5V51.5L135 49.5Z" stroke="#2E6B30"/>
<path d="M225 17.5L211.5 50L209.5 50.5L207 52.5L208 53.5H224V51H223.5H221V50H218L221 41.5H234.5L237.5 46.5V50.5L233.5 51.5V53.5H250V51.5L245 49L232.5 17.5H225Z" stroke="#2E6B30"/>
<path d="M271.5 17.5H256.5V19.5L259.5 20.5L260.5 22.5V50.5L256.5 51.5V52.5L257 53.5H286.5V43.5H283L281.5 47.5L280.5 50.5H269.5L267.5 48.5V20.5L268.5 19.5H272.5V17.5H271.5Z" stroke="#2E6B30"/>
<path d="M402.5 34.5L390.5 20.5H389.5L387.5 19.5V17.5H398.5L407.5 31.5L409 31L414.5 21.5L410.5 19.5L409.5 18.5L410.5 17.5H425.5V19.5L424 20.5L422.5 21L411 35.5L422.5 50.5H423.5L425.5 51.5V53.5H415L405 38.5L397.5 50.5H400.5L403.5 51.5V53.5H387.5V51.5L390.5 50.5L402.5 35.5V34.5Z" stroke="#2E6B30"/>
<path d="M296.5 49.5L298.5 21.5L293.5 19.5V17.5H308.5L318.5 41.5L319.5 40.5L328.5 17.5H342.5V20L338 21.5L339.5 49L344.5 52.5L343.5 53.5H327.5L329 50.5L332.5 50L331.5 24.5H330L319.5 49.5H314.5L303 23.5L301.5 24.5V49.5L306.5 51.5V53.5H291.5V52.5L293.5 50.5L296.5 49.5Z" stroke="#2E6B30"/>
<path d="M362.5 34V21.5V20.5H375.5V21.5V23.5L376.5 27H380.5L381.5 22V18.5L380.5 17.5H351.5L350.5 19.5L352 20L355 22L355.5 50.5H354.5H352.5L350.5 52.5L351.5 53.5H381.5V44H377.5L376.5 47.5V49.5L374.5 50.5H363.5L362.5 48.5V37.5H374.5V34H362.5Z" stroke="#2E6B30"/>
<path d="M124.5 20.5V22.5L124 25.5L123 28L122 28.5H119.5L118.5 26.5V23L117.5 21.5L115.5 20.5L113.5 20H110L108 20.5L106.5 22.5L106 24V25.5V27.5L107 29L109 30.5L112 31.5L115 33.5L119.5 36L122.5 38.5L124.5 41L125.5 43V45.5L124.5 48.5L123 51L121 52.5L116.5 54.5L115.5 55H109L105.5 54.5L102.5 53.5L100.5 52.5L98.5 50V45.5L99.5 43.5H102.5L103.5 45.5V48L105.5 49.5L108 51H113.5L115.5 50.5L117 50L117.5 47.5L118 46L117.5 43.5L116.5 42.5L116 41.5L114 40.5L111.5 39.5L109 38.5L106 37L103.5 35.5L101.5 34.5L99.5 33L99 31.5L98.5 29.5V27.5L99.5 23.5L101.5 20.5L105.5 17.5L109.5 16.5H115.5L119 17L122.5 18.5L124.5 20.5Z" stroke="#2E6B30"/>
<path d="M202 22.5L200 29.5H195.5L194.5 24.5L193.5 21.5L191 20.5H188.5H184L181 21.5L178.5 23.5L176.5 26.5L174.5 31.5V37.5L175.5 40.5L177 44.5L182 49.5L184.5 50H192.5L193.5 49V40.5L189.5 38.5V36.5H204L205.5 38L203.5 39.5H201.5L200.5 40.5V50.5L198 52.5L195 53.5L190.5 54.5H187H184L181.5 54L178.5 53.5L175.5 52.5L171.5 49L169 45L167.5 40.5V31.5L169 26L173 21.5L179.5 17.5L184 16H191L197.5 17L202 20V22.5Z" stroke="#2E6B30"/>
</g>
</svg>
